<svg xmlns="http://www.w3.org/2000/svg" width="591" height="591" viewBox="0 0 591 591">
<g>
<path d="M 467.04 411.25 L 467.00 414.00 L 435.00 414.00 L 435.00 295.00 L 467.67 295.00 L 488.50 337.50 L 488.77 316.25 L 489.04 295.00 L 522.00 295.00 L 522.00 414.05 L 505.48 413.77 L 488.96 413.50 L 478.51 392.11 C472.75,380.34 467.80,370.46 467.49,370.15 C467.18,369.84 466.96,378.34 467.00,389.04 C467.04,399.75 467.06,409.74 467.04,411.25 ZM 128.01 411.75 C124.75,413.97 124.26,414.00 92.35,414.00 L 60.00 414.00 L 60.00 295.00 L 92.35 295.00 C124.35,295.00 124.74,295.03 128.08,297.27 C129.93,298.52 132.48,301.07 133.73,302.92 C135.88,306.12 136.00,307.23 136.00,324.31 C136.00,341.58 135.90,342.50 133.57,346.47 C132.24,348.74 129.56,351.46 127.62,352.51 L 124.09 354.41 L 127.70 356.45 C135.22,360.71 135.50,361.72 135.50,384.00 C135.50,406.09 135.32,406.78 128.01,411.75 ZM 187.00 393.00 L 187.00 414.00 L 154.00 414.00 L 154.00 360.90 C154.00,359.34 154.00,357.83 154.00,356.35 C154.00,312.13 154.00,304.81 157.64,300.83 C158.49,299.91 159.53,299.17 160.81,298.19 L 164.34 295.50 L 191.46 295.21 C218.32,294.91 218.60,294.93 221.94,297.21 C223.80,298.47 226.26,300.77 227.41,302.32 C229.46,305.09 229.50,306.13 229.77,359.57 L 230.05 414.00 L 197.00 414.00 L 197.00 393.00 ZM 374.00 393.00 L 374.00 414.00 L 340.95 414.00 L 341.23 359.67 L 341.50 305.34 L 344.38 301.57 C349.16,295.30 350.78,295.00 379.82,295.00 C405.02,295.00 405.79,295.06 409.01,297.25 C410.83,298.49 413.26,300.77 414.41,302.32 C416.46,305.09 416.50,306.13 416.77,359.57 L 417.05 414.00 L 384.00 414.00 L 384.00 393.00 ZM 302.00 360.25 L 302.00 414.00 L 269.00 414.00 L 269.00 360.00 L 265.65 360.00 C261.17,360.00 256.02,358.19 253.15,355.61 C248.19,351.14 248.00,349.89 248.00,321.55 L 248.00 295.00 L 280.00 295.00 L 280.00 338.00 L 291.00 338.00 L 291.00 295.00 L 324.00 295.00 L 323.98 318.75 C323.96,331.81 323.54,344.27 323.04,346.42 C321.21,354.34 315.67,359.11 307.54,359.79 ZM 187.00 328.00 L 187.00 360.00 L 197.00 360.00 L 197.00 328.00 ZM 374.00 328.00 L 374.00 360.00 L 384.00 360.00 L 384.00 328.00 ZM 301.93 481.09 C301.81,481.23 301.69,481.38 301.57,481.52 C298.61,485.05 297.21,486.73 295.86,486.69 C294.58,486.65 293.35,485.07 290.90,482.07 L 286.30 476.44 L 291.22 470.97 L 296.14 465.50 L 300.97 470.98 L 305.80 476.47 ZM 93.71 381.38 C94.10,381.77 96.47,381.96 98.96,381.80 L 103.50 381.50 L 103.79 372.25 L 104.08 363.00 L 93.00 363.00 L 93.00 371.83 C93.00,376.69 93.32,380.99 93.71,381.38 ZM 93.00 328.00 L 93.00 346.00 L 104.00 346.00 L 104.00 328.00 ZM 271.00 486.17 C271.00,487.99 269.30,486.77 265.19,481.99 L 260.87 476.98 L 264.69 472.03 C266.78,469.31 268.95,467.11 269.50,467.14 C270.05,467.18 272.41,469.34 274.74,471.94 L 278.99 476.68 L 274.99 481.01 C272.80,483.39 271.00,485.71 271.00,486.17 ZM 326.85 481.94 C322.66,486.62 321.00,487.84 321.00,486.25 C321.00,485.84 319.20,483.53 316.99,481.12 L 312.99 476.74 L 317.21 472.12 C319.53,469.58 321.70,467.38 322.03,467.23 C322.37,467.07 324.57,469.23 326.92,472.02 L 331.20 477.09 ZM 249.42 481.26 C247.33,483.59 245.37,485.59 245.06,485.70 C244.75,485.81 242.63,483.77 240.36,481.16 L 236.21 476.42 L 240.76 471.61 C244.65,467.49 245.44,467.03 246.24,468.46 C246.75,469.37 248.53,471.67 250.19,473.57 L 253.22 477.01 ZM 351.42 481.26 C349.33,483.59 347.37,485.61 347.06,485.75 C346.75,485.89 344.70,483.86 342.50,481.25 L 338.50 476.50 L 341.01 474.00 C342.38,472.62 344.29,470.38 345.23,469.00 C346.84,466.66 347.02,466.62 348.06,468.31 C348.67,469.31 350.53,471.67 352.19,473.57 L 355.22 477.01 ZM 377.09 478.00 C376.58,478.00 374.85,479.80 373.24,481.99 L 370.30 485.99 L 366.26 481.20 L 362.23 476.41 L 366.25 472.10 L 370.27 467.79 L 374.09 472.15 C377.99,476.58 378.71,478.00 377.09,478.00 ZM 225.46 481.25 C223.54,483.31 221.64,484.98 221.24,484.95 C220.83,484.92 219.04,483.07 217.25,480.84 L 214.00 476.79 L 217.07 472.91 C220.81,468.19 222.24,467.22 222.83,468.99 C223.08,469.74 224.57,471.60 226.14,473.14 C227.71,474.67 228.99,476.29 228.97,476.72 C228.96,477.15 227.38,479.19 225.46,481.25 ZM 203.62 480.21 C201.90,482.27 200.25,483.97 199.95,483.98 C199.65,483.99 197.74,482.29 195.70,480.21 L 192.00 476.41 L 195.98 472.52 L 199.97 468.63 L 206.73 476.45 ZM 398.16 475.31 C398.93,476.74 398.39,477.93 395.59,481.03 L 392.05 484.95 L 388.92 481.06 C387.20,478.91 385.73,477.00 385.65,476.80 C385.57,476.59 386.95,474.67 388.73,472.52 L 391.95 468.60 L 394.57 471.05 C396.01,472.40 397.62,474.31 398.16,475.31 ZM 416.46 473.53 L 419.15 477.06 L 416.12 480.52 L 413.08 483.98 L 410.04 480.74 C408.38,478.96 407.01,477.02 407.00,476.44 C407.00,475.35 412.14,470.00 413.19,470.00 C413.50,470.00 414.97,471.59 416.46,473.53 ZM 184.15 475.29 C184.91,476.70 184.47,477.84 182.17,480.46 L 179.22 483.82 L 176.11 480.61 C174.40,478.85 173.00,476.95 173.00,476.39 C173.00,475.83 174.34,474.09 175.98,472.52 C178.94,469.69 178.99,469.68 181.08,471.57 C182.24,472.62 183.62,474.29 184.15,475.29 ZM 435.13 479.71 C433.68,481.52 432.22,483.00 431.87,483.00 C431.52,483.00 430.11,481.52 428.73,479.72 L 426.23 476.43 L 432.00 469.97 L 434.88 473.19 L 437.76 476.41 ZM 163.13 479.71 C161.68,481.52 160.22,483.00 159.87,483.00 C159.52,483.00 158.11,481.52 156.73,479.72 L 154.23 476.43 L 160.00 469.97 L 162.88 473.19 L 165.76 476.41 ZM 144.89 479.45 C141.88,482.62 141.57,482.61 139.17,479.24 L 137.20 476.47 L 139.65 473.62 C141.00,472.05 142.19,470.93 142.30,471.13 C142.41,471.34 143.58,472.72 144.89,474.21 L 147.28 476.93 ZM 452.71 479.09 C449.98,482.55 449.87,482.56 447.08,479.59 L 444.81 477.17 L 447.10 474.08 L 449.38 470.99 L 454.91 476.29 ZM 128.35 478.91 C126.10,481.53 125.83,481.52 123.17,478.68 L 120.99 476.36 L 123.49 474.01 C124.87,472.72 126.11,471.85 126.26,472.08 C126.40,472.31 127.34,473.47 128.33,474.66 C130.07,476.73 130.07,476.89 128.35,478.91 ZM 468.17 479.35 C465.81,481.48 465.42,481.44 463.58,478.81 C462.18,476.82 462.20,476.42 463.76,474.56 C464.71,473.43 465.59,472.32 465.73,472.09 C466.19,471.35 470.00,475.28 470.00,476.50 C470.00,477.15 469.18,478.43 468.17,479.35 ZM 483.70 478.10 C482.21,480.49 480.77,480.51 478.65,478.16 C477.09,476.44 477.11,476.21 478.99,474.51 C480.91,472.77 481.09,472.77 482.94,474.45 C484.54,475.90 484.68,476.54 483.70,478.10 ZM 113.32 477.86 C111.89,480.12 109.57,480.40 107.99,478.49 C106.87,477.13 106.98,476.57 108.76,474.80 C110.75,472.80 110.93,472.79 112.60,474.46 C113.92,475.77 114.10,476.63 113.32,477.86 Z" fill="rgb(51,49,46)"/>
<path d="M 467.04 411.25 C467.06,409.74 467.04,399.75 467.00,389.04 C466.96,378.34 467.18,369.84 467.49,370.15 C467.80,370.46 472.75,380.34 478.51,392.11 L 487.01 409.52 L 478.99 393.25 C466.96,368.88 466.94,368.88 467.03,393.50 C467.07,401.75 467.07,409.74 467.05,411.25 L 467.00 414.00 ZM 488.98 413.50 L 519.09 414.00 L 489.23 414.00 Z" fill="rgb(161,131,70)"/>
<path d="M 0.00 0.00 L 591.00 0.00 L 591.00 591.00 L 0.00 591.00 ZM 341.00 141.00 L 341.00 260.00 L 372.91 260.00 L 373.59 256.36 C373.97,254.35 374.01,246.82 373.69,239.61 C372.79,219.79 373.44,219.67 382.21,238.00 C386.29,246.52 390.22,254.96 390.94,256.75 L 392.24 260.00 L 408.60 260.00 L 412.23 252.25 C426.15,222.58 426.21,222.46 426.98,224.50 C427.39,225.60 427.50,232.86 427.23,240.64 C426.95,248.42 427.02,255.96 427.38,257.39 L 428.04 260.00 L 460.00 260.00 L 460.00 141.00 L 443.67 141.00 C427.72,141.00 427.31,141.05 426.27,143.25 C422.19,151.85 416.01,165.22 414.41,168.93 C409.05,181.35 401.33,197.22 400.58,197.35 C400.11,197.43 393.85,184.79 386.68,169.25 L 373.62 141.00 ZM 488.98 413.50 L 489.23 414.00 L 519.09 414.00 L 522.00 414.05 L 522.00 295.00 L 489.04 295.00 L 488.77 316.25 L 488.50 337.50 L 467.67 295.00 L 435.00 295.00 L 435.00 414.00 L 467.00 414.00 L 467.05 411.25 C467.07,409.74 467.07,401.75 467.03,393.50 C466.94,368.88 466.96,368.88 478.99,393.25 L 487.01 409.52 L 488.96 413.50 ZM 128.01 411.75 C135.32,406.78 135.50,406.09 135.50,384.00 C135.50,361.72 135.22,360.71 127.70,356.45 L 124.09 354.41 L 127.62 352.51 C129.56,351.46 132.24,348.74 133.57,346.47 C135.90,342.50 136.00,341.58 136.00,324.31 C136.00,307.23 135.88,306.12 133.73,302.92 C132.48,301.07 129.93,298.52 128.08,297.27 C124.74,295.03 124.35,295.00 92.35,295.00 L 60.00 295.00 L 60.00 414.00 L 92.35 414.00 C124.26,414.00 124.75,413.97 128.01,411.75 ZM 187.00 393.00 L 197.00 393.00 L 197.00 414.00 L 230.05 414.00 L 229.77 359.57 C229.50,306.13 229.46,305.09 227.41,302.32 C226.26,300.77 223.80,298.47 221.94,297.21 C218.60,294.93 218.32,294.91 191.46,295.21 L 164.34 295.50 L 160.81 298.19 C159.53,299.17 158.49,299.91 157.64,300.83 C154.00,304.81 154.00,312.13 154.00,356.35 C154.00,357.83 154.00,359.34 154.00,360.90 L 154.00 414.00 L 187.00 414.00 ZM 374.00 393.00 L 384.00 393.00 L 384.00 414.00 L 417.05 414.00 L 416.77 359.57 C416.50,306.13 416.46,305.09 414.41,302.32 C413.26,300.77 410.83,298.49 409.01,297.25 C405.79,295.06 405.02,295.00 379.82,295.00 C350.78,295.00 349.16,295.30 344.38,301.57 L 341.50 305.34 L 341.23 359.67 L 340.95 414.00 L 374.00 414.00 ZM 247.43 258.69 C247.82,259.69 251.67,260.00 263.97,260.00 L 280.00 260.00 L 280.00 249.61 C280.00,238.35 280.18,238.00 285.88,238.00 C290.35,238.00 291.00,239.55 291.00,250.20 L 291.00 260.00 L 323.00 260.00 L 323.00 152.30 L 320.73 148.92 C319.48,147.07 316.93,144.52 315.08,143.27 C311.78,141.05 311.09,141.00 285.75,141.00 C256.33,141.00 254.81,141.31 250.16,148.33 L 247.50 152.35 L 247.22 204.87 C247.06,233.75 247.16,257.97 247.43,258.69 ZM 60.23 243.79 L 59.95 260.08 L 92.73 259.79 L 125.50 259.50 L 129.16 256.70 C135.89,251.55 136.13,250.25 135.80,220.75 C135.51,195.08 135.45,194.43 133.17,191.23 C128.79,185.09 125.00,184.00 107.99,184.00 L 92.90 184.00 L 93.50 173.50 L 132.05 172.96 L 131.50 141.50 L 101.64 141.23 C72.74,140.98 71.68,141.04 68.36,143.09 C66.47,144.25 63.82,146.84 62.47,148.83 C60.00,152.46 60.00,152.51 60.00,177.87 C60.00,201.55 60.14,203.56 62.06,207.42 C63.20,209.69 65.75,212.66 67.74,214.03 C71.14,216.36 72.28,216.52 87.18,216.85 L 103.00 217.21 L 103.00 226.96 L 81.75 227.23 L 60.50 227.50 ZM 478.00 141.00 L 478.00 260.00 L 493.89 260.00 C507.46,260.00 509.87,259.77 510.39,258.42 C510.73,257.55 511.00,250.35 511.00,242.42 L 511.00 228.00 L 516.75 227.93 C537.05,227.69 542.39,227.02 546.50,224.20 C553.86,219.14 554.00,218.40 554.00,184.46 C554.00,155.30 553.93,154.29 551.75,149.97 C550.27,147.03 548.14,144.74 545.50,143.27 C541.59,141.09 540.75,141.03 509.75,141.02 ZM 302.00 360.25 L 307.54 359.79 C315.67,359.11 321.21,354.34 323.04,346.42 C323.54,344.27 323.96,331.81 323.98,318.75 L 324.00 295.00 L 291.00 295.00 L 291.00 338.00 L 280.00 338.00 L 280.00 295.00 L 248.00 295.00 L 248.00 321.55 C248.00,349.89 248.19,351.14 253.15,355.61 C256.02,358.19 261.17,360.00 265.65,360.00 L 269.00 360.00 L 269.00 414.00 L 302.00 414.00 ZM 176.00 217.56 L 176.00 260.00 L 207.98 260.00 L 208.50 173.50 L 230.00 172.93 L 230.00 141.00 L 154.00 141.00 L 154.00 173.00 L 163.00 173.12 C167.95,173.19 172.34,173.31 172.75,173.39 C175.92,173.98 176.00,175.07 176.00,217.56 ZM 290.50 202.75 C289.93,205.90 289.76,206.00 284.93,206.00 L 279.95 206.00 L 280.23 189.75 L 280.50 173.50 L 290.50 173.50 L 290.80 186.50 C290.96,193.65 290.83,200.96 290.50,202.75 ZM 187.00 328.00 L 197.00 328.00 L 197.00 360.00 L 187.00 360.00 ZM 374.00 328.00 L 384.00 328.00 L 384.00 360.00 L 374.00 360.00 ZM 301.93 481.09 L 305.80 476.47 L 300.97 470.98 L 296.14 465.50 L 291.22 470.97 L 286.30 476.44 L 290.90 482.07 C293.35,485.07 294.58,486.65 295.86,486.69 C297.21,486.73 298.61,485.05 301.57,481.52 C301.69,481.38 301.81,481.23 301.93,481.09 ZM 520.78 184.25 L 521.07 195.00 L 510.93 195.00 L 511.22 184.25 L 511.50 173.50 L 520.50 173.50 ZM 93.71 381.38 C93.32,380.99 93.00,376.69 93.00,371.83 L 93.00 363.00 L 104.08 363.00 L 103.79 372.25 L 103.50 381.50 L 98.96 381.80 C96.47,381.96 94.10,381.77 93.71,381.38 ZM 93.00 328.00 L 104.00 328.00 L 104.00 346.00 L 93.00 346.00 ZM 271.00 486.17 C271.00,485.71 272.80,483.39 274.99,481.01 L 278.99 476.68 L 274.74 471.94 C272.41,469.34 270.05,467.18 269.50,467.14 C268.95,467.11 266.78,469.31 264.69,472.03 L 260.87 476.98 L 265.19 481.99 C269.30,486.77 271.00,487.99 271.00,486.17 ZM 326.85 481.94 L 331.20 477.09 L 326.92 472.02 C324.57,469.23 322.37,467.07 322.03,467.23 C321.70,467.38 319.53,469.58 317.21,472.12 L 312.99 476.74 L 316.99 481.12 C319.20,483.53 321.00,485.84 321.00,486.25 C321.00,487.84 322.66,486.62 326.85,481.94 ZM 249.42 481.26 L 253.22 477.01 L 250.19 473.57 C248.53,471.67 246.75,469.37 246.24,468.46 C245.44,467.03 244.65,467.49 240.76,471.61 L 236.21 476.42 L 240.36 481.16 C242.63,483.77 244.75,485.81 245.06,485.70 C245.37,485.59 247.33,483.59 249.42,481.26 ZM 351.42 481.26 L 355.22 477.01 L 352.19 473.57 C350.53,471.67 348.67,469.31 348.06,468.31 C347.02,466.62 346.84,466.66 345.23,469.00 C344.29,470.38 342.38,472.62 341.01,474.00 L 338.50 476.50 L 342.50 481.25 C344.70,483.86 346.75,485.89 347.06,485.75 C347.37,485.61 349.33,483.59 351.42,481.26 ZM 377.09 478.00 C378.71,478.00 377.99,476.58 374.09,472.15 L 370.27 467.79 L 366.25 472.10 L 362.23 476.41 L 366.26 481.20 L 370.30 485.99 L 373.24 481.99 C374.85,479.80 376.58,478.00 377.09,478.00 ZM 225.46 481.25 C227.38,479.19 228.96,477.15 228.97,476.72 C228.99,476.29 227.71,474.67 226.14,473.14 C224.57,471.60 223.08,469.74 222.83,468.99 C222.24,467.22 220.81,468.19 217.07,472.91 L 214.00 476.79 L 217.25 480.84 C219.04,483.07 220.83,484.92 221.24,484.95 C221.64,484.98 223.54,483.31 225.46,481.25 ZM 203.62 480.21 L 206.73 476.45 L 199.97 468.63 L 195.98 472.52 L 192.00 476.41 L 195.70 480.21 C197.74,482.29 199.65,483.99 199.95,483.98 C200.25,483.97 201.90,482.27 203.62,480.21 ZM 398.16 475.31 C397.62,474.31 396.01,472.40 394.57,471.05 L 391.95 468.60 L 388.73 472.52 C386.95,474.67 385.57,476.59 385.65,476.80 C385.73,477.00 387.20,478.91 388.92,481.06 L 392.05 484.95 L 395.59 481.03 C398.39,477.93 398.93,476.74 398.16,475.31 ZM 416.46 473.53 C414.97,471.59 413.50,470.00 413.19,470.00 C412.14,470.00 407.00,475.35 407.00,476.44 C407.01,477.02 408.38,478.96 410.04,480.74 L 413.08 483.98 L 416.12 480.52 L 419.15 477.06 ZM 184.15 475.29 C183.62,474.29 182.24,472.62 181.08,471.57 C178.99,469.68 178.94,469.69 175.98,472.52 C174.34,474.09 173.00,475.83 173.00,476.39 C173.00,476.95 174.40,478.85 176.11,480.61 L 179.22 483.82 L 182.17 480.46 C184.47,477.84 184.91,476.70 184.15,475.29 ZM 435.13 479.71 L 437.76 476.41 L 434.88 473.19 L 432.00 469.97 L 426.23 476.43 L 428.73 479.72 C430.11,481.52 431.52,483.00 431.87,483.00 C432.22,483.00 433.68,481.52 435.13,479.71 ZM 163.13 479.71 L 165.76 476.41 L 162.88 473.19 L 160.00 469.97 L 154.23 476.43 L 156.73 479.72 C158.11,481.52 159.52,483.00 159.87,483.00 C160.22,483.00 161.68,481.52 163.13,479.71 ZM 144.89 479.45 L 147.28 476.93 L 144.89 474.21 C143.58,472.72 142.41,471.34 142.30,471.13 C142.19,470.93 141.00,472.05 139.65,473.62 L 137.20 476.47 L 139.17 479.24 C141.57,482.61 141.88,482.62 144.89,479.45 ZM 452.71 479.09 L 454.91 476.29 L 449.38 470.99 L 447.10 474.08 L 444.81 477.17 L 447.08 479.59 C449.87,482.56 449.98,482.55 452.71,479.09 ZM 128.35 478.91 C130.07,476.89 130.07,476.73 128.33,474.66 C127.34,473.47 126.40,472.31 126.26,472.08 C126.11,471.85 124.87,472.72 123.49,474.01 L 120.99 476.36 L 123.17 478.68 C125.83,481.52 126.10,481.53 128.35,478.91 ZM 468.17 479.35 C469.18,478.43 470.00,477.15 470.00,476.50 C470.00,475.28 466.19,471.35 465.73,472.09 C465.59,472.32 464.71,473.43 463.76,474.56 C462.20,476.42 462.18,476.82 463.58,478.81 C465.42,481.44 465.81,481.48 468.17,479.35 ZM 483.70 478.10 C484.68,476.54 484.54,475.90 482.94,474.45 C481.09,472.77 480.91,472.77 478.99,474.51 C477.11,476.21 477.09,476.44 478.65,478.16 C480.77,480.51 482.21,480.49 483.70,478.10 ZM 113.32 477.86 C114.10,476.63 113.92,475.77 112.60,474.46 C110.93,472.79 110.75,472.80 108.76,474.80 C106.98,476.57 106.87,477.13 107.99,478.49 C109.57,480.40 111.89,480.12 113.32,477.86 Z" fill="rgb(243,185,68)"/>
<path d="M 60.23 243.79 L 60.50 227.50 L 81.75 227.23 L 103.00 226.96 L 103.00 222.08 L 103.00 217.21 L 87.18 216.85 C72.28,216.52 71.14,216.36 67.74,214.03 C65.75,212.66 63.20,209.69 62.06,207.42 C60.14,203.56 60.00,201.55 60.00,177.87 C60.00,152.51 60.00,152.46 62.47,148.83 C63.82,146.84 66.47,144.25 68.36,143.09 C71.68,141.04 72.74,140.98 101.64,141.23 L 131.50 141.50 L 131.78 157.23 L 132.05 172.96 L 112.78 173.23 L 93.50 173.50 L 93.20 178.75 L 92.90 184.00 L 107.99 184.00 C125.00,184.00 128.79,185.09 133.17,191.23 C135.45,194.43 135.51,195.08 135.80,220.75 C136.13,250.25 135.89,251.55 129.16,256.70 L 125.50 259.50 L 92.73 259.79 L 59.95 260.08 L 60.23 243.79 ZM 176.00 217.56 C176.00,175.07 175.92,173.98 172.75,173.39 C172.34,173.31 167.95,173.19 163.00,173.12 L 154.00 173.00 L 154.00 157.00 L 154.00 141.00 L 192.00 141.00 L 230.00 141.00 L 230.00 156.97 L 230.00 172.93 L 219.25 173.22 L 208.50 173.50 L 208.24 216.75 L 207.98 260.00 L 191.99 260.00 L 176.00 260.00 L 176.00 217.56 ZM 247.43 258.69 C247.16,257.97 247.06,233.75 247.22,204.87 L 247.50 152.35 L 250.16 148.33 C254.81,141.31 256.33,141.00 285.75,141.00 C311.09,141.00 311.78,141.05 315.08,143.27 C316.93,144.52 319.48,147.07 320.73,148.92 L 323.00 152.30 L 323.00 206.15 L 323.00 260.00 L 307.00 260.00 L 291.00 260.00 L 291.00 250.20 C291.00,239.55 290.35,238.00 285.88,238.00 C280.18,238.00 280.00,238.35 280.00,249.61 L 280.00 260.00 L 263.97 260.00 C251.67,260.00 247.82,259.69 247.43,258.69 ZM 290.50 202.75 C290.83,200.96 290.96,193.65 290.80,186.50 L 290.50 173.50 L 285.50 173.50 L 280.50 173.50 L 280.23 189.75 L 279.95 206.00 L 284.93 206.00 C289.76,206.00 289.93,205.90 290.50,202.75 ZM 341.00 200.50 L 341.00 141.00 L 357.31 141.00 L 373.62 141.00 L 386.68 169.25 C393.85,184.79 400.11,197.43 400.58,197.35 C401.33,197.22 409.05,181.35 414.41,168.93 C416.01,165.22 422.19,151.85 426.27,143.25 C427.31,141.05 427.72,141.00 443.67,141.00 L 460.00 141.00 L 460.00 200.50 L 460.00 260.00 L 444.02 260.00 L 428.04 260.00 L 427.38 257.39 C427.02,255.96 426.95,248.42 427.23,240.64 C427.50,232.86 427.39,225.60 426.98,224.50 C426.21,222.46 426.15,222.58 412.23,252.25 L 408.60 260.00 L 400.42 260.00 L 392.24 260.00 L 390.94 256.75 C390.22,254.96 386.29,246.52 382.21,238.00 C373.44,219.67 372.79,219.79 373.69,239.61 C374.01,246.82 373.97,254.35 373.59,256.36 L 372.91 260.00 L 356.95 260.00 L 341.00 260.00 L 341.00 200.50 ZM 478.00 200.50 L 478.00 141.00 L 509.75 141.02 C540.75,141.03 541.59,141.09 545.50,143.27 C548.14,144.74 550.27,147.03 551.75,149.97 C553.93,154.29 554.00,155.30 554.00,184.46 C554.00,218.40 553.86,219.14 546.50,224.20 C542.39,227.02 537.05,227.69 516.75,227.93 L 511.00 228.00 L 511.00 242.42 C511.00,250.35 510.73,257.55 510.39,258.42 C509.87,259.77 507.46,260.00 493.89,260.00 L 478.00 260.00 L 478.00 200.50 ZM 520.78 184.25 L 520.50 173.50 L 516.00 173.50 L 511.50 173.50 L 511.22 184.25 L 510.93 195.00 L 516.00 195.00 L 521.07 195.00 L 520.78 184.25 Z" fill="rgb(254,247,236)"/>
</g>
</svg>